<svg xmlns="http://www.w3.org/2000/svg" width="18.356" height="22.002" viewBox="0 0 18.356 22.002">
  <g id="user" transform="translate(0 0)">
    <path id="Path_80264" data-name="Path 80264" d="M92.331,10.6a5.127,5.127,0,0,0,3.747-1.553A5.127,5.127,0,0,0,97.63,5.3a5.128,5.128,0,0,0-1.553-3.747,5.3,5.3,0,0,0-7.494,0A5.128,5.128,0,0,0,87.032,5.3a5.127,5.127,0,0,0,1.553,3.747A5.129,5.129,0,0,0,92.331,10.6Zm0,0" transform="translate(-83.292)" fill="#adadad"/>
    <path id="Path_80265" data-name="Path 80265" d="M18.311,253.607a13.089,13.089,0,0,0-.178-1.39,10.954,10.954,0,0,0-.342-1.4,6.9,6.9,0,0,0-.575-1.3,4.92,4.92,0,0,0-.866-1.129,3.819,3.819,0,0,0-1.245-.782,4.3,4.3,0,0,0-1.589-.288,1.612,1.612,0,0,0-.861.365c-.258.168-.56.363-.9.578a5.141,5.141,0,0,1-1.161.511,4.507,4.507,0,0,1-2.84,0,5.128,5.128,0,0,1-1.16-.511c-.334-.213-.636-.408-.9-.579a1.61,1.61,0,0,0-.861-.365,4.3,4.3,0,0,0-1.589.288A3.817,3.817,0,0,0,2,248.386a4.92,4.92,0,0,0-.866,1.129,6.917,6.917,0,0,0-.575,1.3,10.979,10.979,0,0,0-.342,1.4,13.043,13.043,0,0,0-.178,1.391c-.029.421-.044.858-.044,1.3a3.654,3.654,0,0,0,1.085,2.764,3.906,3.906,0,0,0,2.8,1.02H14.475a3.905,3.905,0,0,0,2.8-1.02,3.652,3.652,0,0,0,1.085-2.764c0-.443-.015-.881-.044-1.3Zm0,0" transform="translate(0 -236.688)" fill="#adadad"/>
  </g>
</svg>
