<svg xmlns="http://www.w3.org/2000/svg" width="19.043" height="21" viewBox="0 0 19.043 21">
  <path id="Shape" d="M6.529,18.076v-.531H2.448A2.423,2.423,0,0,1,0,15.152v-.405a2.7,2.7,0,0,1,1.539-2.434,1.328,1.328,0,0,0,.751-1.071L2.776,6.02A6.548,6.548,0,0,1,4.954,1.731a6.891,6.891,0,0,1,9.136,0A6.553,6.553,0,0,1,16.267,6.02l.486,5.222A1.322,1.322,0,0,0,17.5,12.31a2.705,2.705,0,0,1,1.544,2.436v.405a2.424,2.424,0,0,1-2.449,2.393h-4.08v.531a2.993,2.993,0,0,1-5.985,0Zm1.632,0a1.361,1.361,0,0,0,2.721,0v-.531H8.161ZM4.4,6.165l-.486,5.222a2.908,2.908,0,0,1-1.642,2.351,1.119,1.119,0,0,0-.64,1.009v.405a.808.808,0,0,0,.816.8H16.594a.808.808,0,0,0,.817-.8v-.405a1.118,1.118,0,0,0-.637-1.008,2.913,2.913,0,0,1-1.646-2.352l-.486-5.222a5.072,5.072,0,0,0-5.12-4.57A5.072,5.072,0,0,0,4.4,6.165Z" transform="translate(0 0)" fill="#343434"/>
</svg>
