<svg xmlns="http://www.w3.org/2000/svg" width="11.421" height="10.849" viewBox="0 0 11.421 10.849">
  <g id="Group_2730" data-name="Group 2730" transform="translate(-256 -469)">
    <g id="Star" transform="translate(256 469)">
      <path id="Star-2" data-name="Star" d="M6.139.266,7.531,3.074a.48.48,0,0,0,.361.263l3.116.451a.479.479,0,0,1,.317.184.465.465,0,0,1-.051.622L9.016,6.785a.46.46,0,0,0-.136.422L9.421,10.3a.474.474,0,0,1-.392.538.52.52,0,0,1-.31-.048L5.943,9.329a.465.465,0,0,0-.446,0L2.7,10.8a.487.487,0,0,1-.647-.2.481.481,0,0,1-.049-.3L2.546,7.2a.476.476,0,0,0-.136-.422L.14,4.593a.474.474,0,0,1,0-.67l0,0a.546.546,0,0,1,.272-.134l3.117-.451a.488.488,0,0,0,.361-.264L5.28.266A.473.473,0,0,1,5.555.025a.478.478,0,0,1,.367.027A.493.493,0,0,1,6.139.266Z" transform="translate(0 0)" fill="#ffa827"/>
    </g>
  </g>
</svg>
